PathFileType	4	(X/Y/Z)	C:\Users\Vitor Bertoli\OneDrive\Documents\Yolotestes\IMG_0214_Sports2D\IMG_0214_Sports2D_m_person00.trc
DataRate	CameraRate	NumFrames	NumMarkers	Units	OrigDataRate	OrigDataStartFrame	OrigNumFrames
120	120	8	22	m	120	158	633
Frame#	Time	Hip			RHip			RKnee			RAnkle			RBigToe			RSmallToe			RHeel			LHip			LKnee			LAnkle			LBigToe			LSmallToe			LHeel			Neck			Head			Nose			RShoulder			RElbow			RWrist			LShoulder			LElbow			LWrist		
		X1	Y1	Z1	X2	Y2	Z2	X3	Y3	Z3	X4	Y4	Z4	X5	Y5	Z5	X6	Y6	Z6	X7	Y7	Z7	X8	Y8	Z8	X9	Y9	Z9	X10	Y10	Z10	X11	Y11	Z11	X12	Y12	Z12	X13	Y13	Z13	X14	Y14	Z14	X15	Y15	Z15	X16	Y16	Z16	X17	Y17	Z17	X18	Y18	Z18	X19	Y19	Z19	X20	Y20	Z20	X21	Y21	Z21	X22	Y22	Z22
158	1.3166666666666667	1.8536433629449807	0.8719782947009884	0.0	1.7716434456052885	0.8933862386521282	0.0	1.7934192564975524	0.4489305351903115	0.0	1.4238526452608449	0.15061122865564708	0.0	1.5187547247441704	-0.016670401019996353	0.0	1.4666833867505402	-0.011939779630523348	0.0	1.339380890955113	0.13317441928971357	0.0	1.939740747676812	0.8531818082579544	0.0	2.150031846991693	0.5409592284347818	0.0	2.0338320345757377	0.10382121514013215	0.0	2.2248336775613233	0.009766946169885772	0.0	2.2051913598837407	0.025969241306536304	0.0	1.9820972278018913	0.04522250947342546	0.0	2.3235654432695423	1.1970526637555396	0.0	2.595158860323059	1.2996630500363815	0.0	2.524782825482311	1.1831414656509702	0.0	2.183487632966777	1.1902610548006742	0.0	1.9932997020976457	0.9160163455784908	0.0	2.1166567686248325	0.6548705523797752	0.0	2.272888222139048	1.1589206516817496	0.0	2.090960277213529	0.9329654714485721	0.0	2.1178688764803746	0.6738587491913717	0.0
159	1.325	1.8533464853304529	0.8718307794737487	0.0	1.7713257881747908	0.8931624037191844	0.0	1.793478544914742	0.44892734335282836	0.0	1.4236630562035109	0.15043085610173412	0.0	1.51873353363413	-0.016658249187000165	0.0	1.4667303386838668	-0.01196360736707008	0.0	1.3393497051278245	0.13304508787183292	0.0	1.9394805139511506	0.8529638460886024	0.0	2.149913209960989	0.5407309606356085	0.0	2.0337767356081007	0.1037418305468525	0.0	2.2250387287279696	0.009818153885867832	0.0	2.2052882946979895	0.02604671757446049	0.0	1.9820088592414595	0.04520442681189279	0.0	2.3234225120313545	1.1969389275489168	0.0	2.5950096937540823	1.2994684008644835	0.0	2.5244297293619375	1.1829249619013564	0.0	2.1836640219325134	1.1899934942246462	0.0	1.9933219731562477	0.9157989874435015	0.0	2.1169839340532786	0.6547334244615447	0.0	2.272788106091053	1.1588330102585087	0.0	2.090408918063935	0.9328052773976505	0.0	2.1175735765031334	0.6739724958988156	0.0
160	1.3333333333333333	1.8530296667661654	0.8716375210048078	0.0	1.7710392415766674	0.8928932401721654	0.0	1.7935979042435004	0.44892691267698287	0.0	1.423463883018592	0.15025517941811511	0.0	1.518755924323927	-0.016644794842364908	0.0	1.4667983170112018	-0.011994907259711468	0.0	1.3393371024677674	0.13293020010486603	0.0	1.9392024772716543	0.8527271067755694	0.0	2.1497611950076676	0.5404590572262685	0.0	2.033719922516844	0.10366198015408769	0.0	2.225230837400307	0.009890627887060589	0.0	2.205360620642968	0.026109662384282688	0.0	1.9819053877672494	0.04522187911388008	0.0	2.323313817250922	1.196885112918328	0.0	2.594755800125395	1.2993953886198715	0.0	2.5241598849890026	1.1827284066031316	0.0	2.1838209132242374	1.1897383746648857	0.0	1.993302764965128	0.9154854247909308	0.0	2.1173346990205566	0.654577310819662	0.0	2.2727423447731296	1.1586592729818868	0.0	2.089847836513437	0.9325619435767369	0.0	2.1172897386655603	0.6740931507350166	0.0
161	1.3416666666666666	1.8527095017345223	0.8714220830585339	0.0	1.770801843052515	0.8926126819308036	0.0	1.7937798220307248	0.44893239133263135	0.0	1.4232745353765728	0.15009260159471108	0.0	1.5188341344366945	-0.0166188918487763	0.0	1.4669168633889214	-0.012025280774373797	0.0	1.3393435846563118	0.1328074511780519	0.0	1.9389197656260018	0.8524964572448736	0.0	2.149579362225687	0.5401478320460406	0.0	2.0336678864793925	0.10358134080539053	0.0	2.2253867689818274	0.009989663694570652	0.0	2.20540033081767	0.026163198057770447	0.0	1.9817942418690908	0.045263433017657305	0.0	2.32322633073435	1.1968974881023617	0.0	2.5944542015042686	1.2994154114082053	0.0	2.523951579882085	1.1825393126292505	0.0	2.183958422924611	1.1895137264645506	0.0	1.9932447548215888	0.9150924550315491	0.0	2.1176977885356476	0.6544034928663489	0.0	2.2727230581170925	1.1584470514030862	0.0	2.0892965154546443	0.932270391164258	0.0	2.117038090036833	0.6742008755089575	0.0
162	1.35	1.852395892371189	0.8711905550447298	0.0	1.7706194508336444	0.8923204160874754	0.0	1.7940235281222112	0.4489515699965761	0.0	1.4231160642278486	0.14995295503005282	0.0	1.5189581539945582	-0.016569924964667932	0.0	1.4670986551894294	-0.012041583839552717	0.0	1.3393736438765749	0.13267274655206152	0.0	1.938650017787737	0.8522800522919086	0.0	2.14937783462173	0.5397995658310244	0.0	2.0336305554035086	0.10348591931700826	0.0	2.2254938913175066	0.010098403036579228	0.0	2.2054102066093835	0.026213476293788493	0.0	1.9816990968895458	0.04531078367949777	0.0	2.32315657226466	1.1969721190533151	0.0	2.5941002552485526	1.2995257506686508	0.0	2.523804790838208	1.182336377057928	0.0	2.1840538208552536	1.1893339679553758	0.0	1.993150345826843	0.9146352447040297	0.0	2.118063664405004	0.654220468517163	0.0	2.2727265004731985	1.1582304828976018	0.0	2.0887673473107395	0.9319338467216833	0.0	2.1168309236364435	0.6742746693368548	0.0
163	1.3583333333333334	1.8520938248844327	0.8709353196622165	0.0	1.7704867606436634	0.8919948160533168	0.0	1.794316927425482	0.4489857641276351	0.0	1.4230004379622432	0.1498403319700126	0.0	1.519102786212751	-0.01649619775464042	0.0	1.467327302036764	-0.012038586940074932	0.0	1.339431893368209	0.13253968261759486	0.0	1.9384121750997447	0.8520745336264578	0.0	2.149166026377855	0.5394180435697675	0.0	2.033611321359434	0.10336476698117773	0.0	2.225543557194686	0.010194382317144176	0.0	2.2053949145697134	0.026261524718747698	0.0	1.9816411901198037	0.04535388127851127	0.0	2.323104269484999	1.1970916036100416	0.0	2.5936629973351377	1.299733292348524	0.0	2.523727342312301	1.1821058151848414	0.0	2.18407973279271	1.1892078729241233	0.0	1.9930296883143956	0.9141348643044288	0.0	2.1184128868091316	0.6540390211499111	0.0	2.2727618650610264	1.1580149261428205	0.0	2.08827092607772	0.9315491482805643	0.0	2.116681851902944	0.6742971483546859	0.0
164	1.3666666666666667	1.8518097103896087	0.8706509336185502	0.0	1.770395208800381	0.8916264141662047	0.0	1.7946333580700606	0.4490210662802762	0.0	1.4229267023120695	0.1497473932115727	0.0	1.519244471144695	-0.0164034696958587	0.0	1.467573235861811	-0.012020807797270654	0.0	1.3395163024376153	0.1324230520075013	0.0	1.9382192094221207	0.8518800804075016	0.0	2.148945373150486	0.5390088865659001	0.0	2.0336092035155544	0.10322323552480828	0.0	2.225529569558106	0.01028009993844548	0.0	2.2053552263498033	0.026313116504371178	0.0	1.9816320131299265	0.04539757525266452	0.0	2.323058152427574	1.19722943423901	0.0	2.5931441269925584	1.300021294528838	0.0	2.5237033794009562	1.181855130332072	0.0	2.1840301871968886	1.1891349271025733	0.0	1.9929101891494274	0.9136224676152539	0.0	2.118717772493512	0.653867690914504	0.0	2.272824798595072	1.1577827285178741	0.0	2.0878234637979856	0.9311458346589926	0.0	2.1166070482488393	0.6742694348349018	0.0
165	1.375	1.8515491509397515	0.8703295394069837	0.0	1.770335945098479	0.8912155191803682	0.0	1.794941835127108	0.4490396676424639	0.0	1.4228825395573654	0.14966231291021065	0.0	1.5193687741838167	-0.01630080477525816	0.0	1.467809473669879	-0.011996318429561344	0.0	1.3396163773537701	0.13233604810349067	0.0	1.9380712615223745	0.8516939197044779	0.0	2.148718694456981	0.5385827995999051	0.0	2.0336202996688137	0.10307386317768148	0.0	2.225447102590418	0.010370731034433096	0.0	2.205291350212094	0.026378602594377354	0.0	1.9816779256328056	0.04545142952307252	0.0	2.323010897367692	1.197351555851834	0.0	2.592551857506965	1.3003658433875904	0.0	2.523716173859747	1.1815993100529554	0.0	2.183912022746722	1.1891091403703025	0.0	1.9928314167100283	0.9131302224749296	0.0	2.118961994538727	0.6537160448847368	0.0	2.272908103609929	1.157503715989477	0.0	2.08744238141875	0.9307680055467529	0.0	2.1165978518357536	0.6742282867873998	0.0
